<?xml version="1.0" encoding="UTF-8"?>
<svg version="1.1" xmlns="http://www.w3.org/2000/svg" width="512" height="512">
<path d="M0 0 C4.82155233 3.62842243 9.10137579 7.79140216 13.2421875 12.171875 C16.49607725 10.76304801 18.42986266 9.09514356 20.8046875 6.484375 C34.28492571 -7.29542406 53.5495288 -13.78077672 72.47436523 -14.3034668 C93.54349344 -14.46244939 113.32700649 -9.33461768 129.2421875 5.171875 C130.06074219 5.89890625 130.87929688 6.6259375 131.72265625 7.375 C138.66460726 13.886361 144.48150348 21.4912587 148.14453125 30.35546875 C149.7073992 32.94170931 151.69496247 33.87282277 154.3046875 35.359375 C168.45079474 44.06893907 177.91391211 58.04945589 181.9921875 74.12890625 C182.98996478 79.19401174 183.47130461 84.01674008 183.2421875 89.171875 C184.2940625 89.23375 185.3459375 89.295625 186.4296875 89.359375 C200.30152608 91.17300761 212.47630061 98.98174979 221.390625 109.546875 C231.21609249 123.47665169 233.55885202 137.50290212 232.2421875 154.171875 C230.25570502 164.82664468 224.1599485 173.32074109 218.2421875 182.171875 C218.95503906 182.83832031 219.66789062 183.50476563 220.40234375 184.19140625 C235.06063428 198.17536926 245.11710315 216.64760903 246.2421875 237.171875 C246.32146484 238.49058594 246.32146484 238.49058594 246.40234375 239.8359375 C246.79165502 252.39545772 244.17892153 264.07375312 239.1328125 275.5 C237.73021134 279.70780347 238.85925397 281.40120927 240.80078125 285.30859375 C241.10363037 285.8806958 241.40647949 286.45279785 241.71850586 287.04223633 C248.88654368 300.59359663 250.53514094 314.6558527 246.6171875 329.609375 C242.4830887 342.21333476 234.52438777 350.97367655 225.2421875 360.171875 C225.72429687 361.06648438 226.20640625 361.96109375 226.703125 362.8828125 C234.3944211 377.46772883 236.37737598 390.68575778 231.46484375 406.70703125 C229.14328266 413.15359787 225.74344917 418.04878956 221.2421875 423.171875 C220.66855469 423.8628125 220.09492188 424.55375 219.50390625 425.265625 C210.52046632 435.2685988 196.84415841 440.32774569 183.6875 441.484375 C173.30930928 441.82959548 162.46716447 440.2536241 153.2421875 435.171875 C153.1803125 436.22375 153.1184375 437.275625 153.0546875 438.359375 C150.79132408 455.5307588 139.38070279 471.39330722 126.2421875 482.171875 C118.5223206 487.77530496 110.25079124 492.05487449 101.2421875 495.171875 C99.87513672 495.65140625 99.87513672 495.65140625 98.48046875 496.140625 C77.19270165 502.27968734 53.99371255 498.63822662 34.8125 488.25 C27.28096263 483.97673129 21.16614934 478.4387028 15.2421875 472.171875 C12.01517546 473.57001151 10.13723685 475.18899132 7.8046875 477.796875 C-0.28866555 486.07041402 -10.90780688 491.41774462 -21.7578125 495.171875 C-23.12486328 495.65140625 -23.12486328 495.65140625 -24.51953125 496.140625 C-45.80610698 502.27934377 -69.0255266 498.64542415 -88.19921875 488.23828125 C-92.78322276 485.63583517 -96.85964348 482.72500835 -100.7578125 479.171875 C-101.57636719 478.44484375 -102.39492187 477.7178125 -103.23828125 476.96875 C-114.73258655 466.18740464 -123.8147408 451.2040939 -124.7578125 435.171875 C-125.37527344 435.43742187 -125.99273437 435.70296875 -126.62890625 435.9765625 C-142.52258907 442.60497817 -158.04119652 443.19837524 -174.2265625 436.80078125 C-187.38007041 430.83881082 -197.10362923 421.26465173 -202.74609375 407.81640625 C-207.98260778 392.60321621 -206.01804825 378.01719985 -199.14648438 363.89477539 C-198.36024352 362.31546579 -197.56049148 360.74289376 -196.7578125 359.171875 C-197.39847656 358.63820313 -198.03914063 358.10453125 -198.69921875 357.5546875 C-209.67334522 348.10156515 -217.61101813 336.85247889 -219.7578125 322.171875 C-220.62457311 307.73533762 -219.43132426 295.5504001 -210.83203125 283.390625 C-209.41512783 280.4640754 -209.79590372 279.24998309 -210.7578125 276.171875 C-211.54617969 273.99631119 -212.36115241 271.83029517 -213.1953125 269.671875 C-220.08134691 250.58601663 -219.59844182 229.49497625 -211.12109375 210.96484375 C-210.67121094 210.04316406 -210.22132813 209.12148437 -209.7578125 208.171875 C-209.33886719 207.26050781 -208.91992188 206.34914062 -208.48828125 205.41015625 C-205.07131756 198.50729877 -200.54883235 193.28521029 -195.24609375 187.80078125 C-193.22687937 185.66745115 -191.44947499 183.56509652 -189.7578125 181.171875 C-190.27730469 180.51703125 -190.79679687 179.8621875 -191.33203125 179.1875 C-202.53754913 164.52297753 -205.01101795 151.18232764 -203.7578125 133.171875 C-201.30669616 119.45448293 -192.9994895 107.12602147 -181.81640625 99.046875 C-173.62245439 93.68284394 -164.73738638 89.171875 -154.7578125 89.171875 C-154.73203125 88.38425781 -154.70625 87.59664063 -154.6796875 86.78515625 C-153.69313432 67.83885084 -146.41647711 53.11069107 -132.7578125 40.171875 C-130.18718073 38.16578805 -127.59927898 36.32722618 -124.8515625 34.57421875 C-120.7829131 31.84913454 -118.95319914 28.90825557 -116.6328125 24.609375 C-113.0349858 18.34341211 -108.85047993 13.27318872 -103.7578125 8.171875 C-102.72720703 7.12386719 -102.72720703 7.12386719 -101.67578125 6.0546875 C-74.21847174 -20.12909188 -30.6512918 -20.31842006 0 0 Z M-95.7578125 18.171875 C-97.51328642 20.45497731 -99.13261737 22.79130748 -100.7578125 25.171875 C-99.52546875 25.14867188 -98.293125 25.12546875 -97.0234375 25.1015625 C-82.84545714 24.91214009 -68.01419553 25.00095298 -55.7578125 33.171875 C-54.70348971 36.51056384 -54.65287495 38.85706235 -55.7578125 42.171875 C-62.11726921 42.66106398 -66.86247342 41.35198058 -72.828125 39.14453125 C-86.02336223 34.76371249 -100.37287876 37.0567354 -112.8203125 42.671875 C-126.26509358 49.86616845 -135.07154383 60.9946942 -140.01171875 75.34375 C-141.21536551 79.90626441 -141.5758782 84.46887326 -141.7578125 89.171875 C-140.75621094 89.35363281 -139.75460938 89.53539063 -138.72265625 89.72265625 C-137.38012859 89.97614049 -136.03768507 90.23007068 -134.6953125 90.484375 C-134.03853516 90.60232422 -133.38175781 90.72027344 -132.70507812 90.84179688 C-128.04925815 91.73626475 -123.96982632 92.95869217 -119.7578125 95.171875 C-118.6953125 98.671875 -118.6953125 98.671875 -118.7578125 102.171875 C-119.4178125 103.161875 -120.0778125 104.151875 -120.7578125 105.171875 C-125.75985572 105.77212019 -129.32528755 104.74768015 -133.859375 102.90625 C-144.10580806 98.94260923 -156.36632388 101.20363941 -166.23828125 105.16796875 C-175.22657762 109.76552211 -183.35273442 117.02148923 -187.7578125 126.171875 C-188.07492188 126.79964844 -188.39203125 127.42742187 -188.71875 128.07421875 C-192.44919997 136.98965193 -192.17891039 149.04103663 -189.1953125 158.171875 C-185.79199395 166.08489129 -180.44893167 171.91456708 -173.7578125 177.171875 C-172.15055615 180.38638769 -172.70033065 183.60800036 -172.7578125 187.171875 C-173.63373047 187.5740625 -173.63373047 187.5740625 -174.52734375 187.984375 C-188.62762475 195.49135473 -197.95760884 210.84202498 -202.6328125 225.609375 C-207.48318976 243.93963507 -204.05549015 261.2517855 -194.78662109 277.45654297 C-191.20346615 283.43073534 -186.89146773 288.06643801 -181.8203125 292.796875 C-177.1563371 297.3337233 -177.1563371 297.3337233 -177.0078125 301.109375 C-177.7578125 304.171875 -177.7578125 304.171875 -180.7578125 306.171875 C-185.85026872 305.98455032 -188.26309128 304.32591052 -191.8828125 300.859375 C-192.71039063 300.07949219 -193.53796875 299.29960937 -194.390625 298.49609375 C-196.52544492 296.40002468 -198.64958456 294.29467594 -200.7578125 292.171875 C-201.57533553 293.75262064 -202.38663247 295.33658723 -203.1953125 296.921875 C-203.64777344 297.80359375 -204.10023438 298.6853125 -204.56640625 299.59375 C-208.35257822 307.78677786 -208.01023434 318.60564164 -205.1328125 327.046875 C-199.36634228 340.68407124 -190.29435827 349.31039109 -176.7578125 355.171875 C-171.84024093 356.82935225 -166.82121506 358.04433999 -161.7578125 359.171875 C-160.42789112 365.579678 -160.42789112 365.579678 -161.84375 368.12109375 C-164.54057759 369.60159706 -166.34132552 369.31838843 -169.3828125 368.984375 C-170.44242188 368.86835938 -171.50203125 368.75234375 -172.59375 368.6328125 C-176.72331337 368.03122179 -180.70971342 367.18389977 -184.7578125 366.171875 C-191.17220015 376.78183697 -194.1714268 385.78435453 -191.7578125 398.171875 C-188.85365431 408.68366497 -182.6637815 416.73578699 -173.55078125 422.6640625 C-162.97518482 428.37340547 -151.24839271 430.09412405 -139.5703125 427.046875 C-134.11701876 425.18739123 -127.87893056 422.29299306 -123.7578125 418.171875 C-117.9167529 417.80101407 -117.9167529 417.80101407 -115.7578125 418.171875 C-113.40633083 421.6990975 -113.25672121 424.58304822 -112.8828125 428.671875 C-110.939345 446.19255879 -102.52360196 461.1432367 -88.7578125 472.171875 C-72.161451 484.00238945 -53.58032125 487.44111589 -33.52587891 484.88769531 C-20.76837298 482.48741803 -7.96168239 475.25660094 1.2421875 466.171875 C1.81482834 465.64648443 2.38746918 465.12109386 2.97746277 464.57978237 C9.88029583 457.25246616 9.23008121 449.27366797 9.14453125 439.83914185 C9.15403576 438.06553154 9.16658222 436.29193538 9.18189812 434.51836574 C9.2149528 429.65696461 9.20444032 424.79649306 9.18657827 419.93504834 C9.17484935 414.68741855 9.20336634 409.43998347 9.22659302 404.19241333 C9.26542347 393.91676519 9.2661338 383.64145352 9.25275457 373.36575378 C9.24241128 365.01314897 9.24499502 356.66064281 9.2567749 348.30804062 C9.25842498 347.11903065 9.26007506 345.93002067 9.26177514 344.7049801 C9.26515783 342.28946692 9.26855874 339.87395377 9.27197766 337.45844065 C9.30228226 314.80844523 9.28812343 292.15863945 9.25980687 269.50865243 C9.23517927 248.79126297 9.26274355 228.0743355 9.31551123 207.35701074 C9.36929928 186.07961978 9.38987527 164.80244289 9.3736763 143.52498615 C9.37194976 141.11777111 9.37027491 138.71055603 9.36865234 136.30334091 C9.36785384 135.11897622 9.36705534 133.93461153 9.36623263 132.714357 C9.36276868 124.37417447 9.38091195 116.03420005 9.40771484 107.69406509 C9.43995823 97.52642565 9.44048163 87.35938235 9.40029228 77.19176115 C9.38063469 72.00528461 9.37533724 66.81986482 9.40924454 61.63343811 C9.4399156 56.88187203 9.42876358 52.13227603 9.38478851 47.38083135 C9.37614998 45.66558013 9.38257176 43.95017019 9.4058876 42.2350557 C9.52913175 32.46595776 8.72030973 25.86057719 1.70223808 18.38708866 C-14.45603739 3.83696812 -31.75317583 -1.86868973 -53.25 -1.20703125 C-69.10808411 -0.34641049 -84.44625532 7.01963552 -95.7578125 18.171875 Z M26.2421875 19.171875 C25.73526556 19.65765266 25.22834362 20.14343033 24.70606041 20.64392853 C18.93098086 27.06189683 19.43028891 33.79791668 19.56103516 42.03320312 C19.56272973 43.53190034 19.56177344 45.03060254 19.55838013 46.52929688 C19.55666517 50.57872238 19.59183239 54.62707211 19.63382387 58.67624855 C19.67144232 62.91492825 19.67486495 67.15363517 19.68197632 71.39245605 C19.70059268 79.41060137 19.74978578 87.4282533 19.81007326 95.44618177 C19.87723875 104.57792537 19.91015256 113.70969307 19.94024587 122.84162235 C20.00288822 141.61870942 20.11288014 160.39512051 20.2421875 179.171875 C40.0421875 179.171875 59.8421875 179.171875 80.2421875 179.171875 C84.17536766 169.82890403 84.17536766 169.82890403 87.69921875 160.3828125 C88.08916016 159.25746094 88.47910156 158.13210937 88.88085938 156.97265625 C89.26822266 155.84214844 89.65558594 154.71164063 90.0546875 153.546875 C90.46138672 152.37769531 90.86808594 151.20851562 91.28710938 150.00390625 C93.37176696 144.70598002 93.37176696 144.70598002 94.2421875 139.171875 C93.3346875 138.45 92.4271875 137.728125 91.4921875 136.984375 C87.02057711 133.41131516 84.31839203 128.83452124 83.2421875 123.171875 C82.44344438 114.11184585 82.75546138 106.67638957 88.2421875 99.171875 C93.78489015 92.97089412 100.6489925 89.83561467 108.91796875 89.17578125 C117.00410375 89.16219111 123.86634594 92.05744735 129.74609375 97.5859375 C136.1161546 104.69758752 136.86356243 111.14387796 136.65234375 120.4375 C135.87675098 127.49908752 133.08728543 132.75934025 127.9296875 137.609375 C122.69380843 141.60398963 117.49077039 143.16107901 110.98046875 143.74609375 C109.64495972 143.8692395 109.64495972 143.8692395 108.2824707 143.99487305 C107.60917725 144.05328369 106.93588379 144.11169434 106.2421875 144.171875 C105.8390332 145.32187988 105.43587891 146.47188477 105.02050781 147.65673828 C103.51558487 151.94245274 101.99966185 156.22420823 100.48046875 160.50488281 C99.82579015 162.35441455 99.17405739 164.20499187 98.52539062 166.05664062 C97.58985662 168.72549531 96.64362185 171.39034955 95.6953125 174.0546875 C95.40972473 174.87679718 95.12413696 175.69890686 94.82989502 176.54592896 C90.93594588 187.398761 90.93594588 187.398761 86.51062012 190.31164551 C83.55974479 191.43066926 81.06934464 191.45344401 77.91308594 191.49072266 C75.99154694 191.52052719 75.99154694 191.52052719 74.03118896 191.55093384 C72.6379819 191.56280936 71.244773 191.57447227 69.8515625 191.5859375 C68.4223723 191.60465332 66.99319309 191.62422705 65.56402588 191.6446228 C61.80927014 191.69590648 58.05447858 191.73555216 54.29956055 191.77276611 C49.79065393 191.81987801 45.28192447 191.88145965 40.77316284 191.94061279 C33.92957605 192.02877924 27.08602243 192.09857575 20.2421875 192.171875 C20.2421875 206.691875 20.2421875 221.211875 20.2421875 236.171875 C52.2521875 236.171875 84.2621875 236.171875 117.2421875 236.171875 C118.8921875 232.871875 120.5421875 229.571875 122.2421875 226.171875 C125.736439 220.3481225 131.92667061 217.47390002 138.30078125 215.55078125 C146.14850561 214.01913283 153.16467628 215.5528148 160.2421875 219.171875 C165.83265262 223.16063569 169.57152158 228.50886622 171.2421875 235.171875 C172.35911768 244.17053891 171.7028877 251.74956405 166.2421875 259.171875 C160.89505997 265.30944747 155.06847249 268.33805962 147.05859375 269.484375 C139.57528975 269.91123013 132.5531168 267.28523412 126.3046875 263.296875 C121.84172054 258.69866662 119.78844259 254.11313687 117.2421875 248.171875 C85.2321875 248.171875 53.2221875 248.171875 20.2421875 248.171875 C20.2421875 262.691875 20.2421875 277.211875 20.2421875 292.171875 C27.08517578 292.22794922 27.08517578 292.22794922 34.06640625 292.28515625 C36.9603239 292.31544028 39.85418036 292.34659078 42.74804688 292.38085938 C47.33907967 292.43514305 51.92999142 292.48625439 56.52124023 292.51831055 C60.22376445 292.54436267 63.92588122 292.58477788 67.62815285 292.63506126 C69.03904964 292.65171721 70.45001689 292.66323944 71.86099815 292.66948891 C73.84063298 292.67914289 75.8201385 292.70891451 77.79956055 292.73950195 C78.92541061 292.75060501 80.05126068 292.76170807 81.21122742 292.77314758 C84.60285186 293.21932095 86.4943074 294.17074614 89.2421875 296.171875 C94.92436115 303.94597795 97.44000212 314.76419334 100.5546875 323.796875 C101.10941131 325.38953716 101.66474531 326.98198693 102.22070312 328.57421875 C103.56823998 332.43769334 104.90750511 336.30394185 106.2421875 340.171875 C107.12914307 340.29667236 108.01609863 340.42146973 108.92993164 340.55004883 C110.09645264 340.72044678 111.26297363 340.89084473 112.46484375 341.06640625 C113.61992432 341.23245361 114.77500488 341.39850098 115.96508789 341.56958008 C122.96001767 342.85517136 127.62696759 345.72925599 131.9921875 351.328125 C136.76071329 358.36170054 138.10143331 366.42151431 136.6796875 374.734375 C134.87610298 381.48288661 131.19530446 387.19719413 125.3671875 391.109375 C117.7397399 395.32263177 109.83379459 396.19706651 101.3671875 394.171875 C94.0737761 391.79262189 88.28854879 386.83406676 84.6796875 380.046875 C81.78634655 372.38881202 81.79915047 362.43566296 85.18359375 354.921875 C87.47295529 351.13724781 90.2260102 347.17996365 94.2421875 345.171875 C92.04460916 336.43790981 89.1743233 328.01346722 86.1171875 319.546875 C85.65724051 318.25662144 85.19760328 316.96625742 84.73828125 315.67578125 C83.16098285 310.04157759 83.16098285 310.04157759 80.2421875 305.171875 C78.3703781 305.07801119 76.4950069 305.05443696 74.62084961 305.05834961 C72.81909523 305.05846291 72.81909523 305.05846291 70.98094177 305.05857849 C69.02004356 305.06632042 69.02004356 305.06632042 67.01953125 305.07421875 C65.67574618 305.07608302 64.33196043 305.07750688 62.98817444 305.07850647 C59.44536473 305.08233098 55.9025958 305.09216068 52.35980225 305.10321045 C48.74703523 305.11342601 45.13426166 305.1180044 41.52148438 305.12304688 C34.4283687 305.13378302 27.33528076 305.15085864 20.2421875 305.171875 C20.03159268 324.80001389 19.87306621 344.42792234 19.77587795 364.0569582 C19.72954439 373.1719021 19.66641931 382.28614252 19.56323242 391.40063477 C19.47329754 399.34839227 19.41540973 407.29564013 19.39539105 415.24389237 C19.38369538 419.44959176 19.35637268 423.65383369 19.29061699 427.8590641 C19.2291138 431.82480411 19.21076343 435.78849943 19.22421837 439.7546711 C19.22176041 441.20307822 19.20409738 442.65156008 19.16933823 444.09955215 C18.9547683 453.50663737 20.37469209 458.88165489 26.79666233 465.87892437 C40.26076523 478.50301167 57.058564 485.80861229 75.5546875 485.609375 C76.55870605 485.60107666 77.56272461 485.59277832 78.59716797 485.58422852 C96.6129485 485.17655946 111.58698223 477.96171012 124.2421875 465.171875 C124.86609375 464.58148438 125.49 463.99109375 126.1328125 463.3828125 C136.62406382 452.65527173 141.06722283 438.14250493 141.8984375 423.5546875 C142.2421875 421.171875 142.2421875 421.171875 144.2421875 418.171875 C149.58943189 417.32757325 152.30194158 417.89082412 156.7421875 420.984375 C157.48855469 421.5309375 158.23492187 422.0775 159.00390625 422.640625 C167.96236688 428.7692752 179.18911673 429.46096943 189.59765625 427.55859375 C199.90893435 424.76210614 208.98576977 419.26992041 215.03125 410.2890625 C220.55402821 400.63310834 222.5341682 390.88806174 220.1171875 379.921875 C218.62553774 374.64906654 216.40922431 370.62284565 213.2421875 366.171875 C212.0046875 366.48125 210.7671875 366.790625 209.4921875 367.109375 C205.6322132 367.95489318 201.79567297 368.55424885 197.8671875 368.984375 C196.86945313 369.09394531 195.87171875 369.20351563 194.84375 369.31640625 C192.2421875 369.171875 192.2421875 369.171875 190.328125 368.12109375 C188.61886349 365.05303083 189.55227032 362.49602143 190.2421875 359.171875 C191.34175781 358.88054687 192.44132813 358.58921875 193.57421875 358.2890625 C207.10946317 354.58926541 220.48014253 350.0893666 228.29101562 337.47851562 C234.49938016 326.48723648 237.51477823 315.54349917 234.453125 302.91796875 C232.95038481 298.61049593 231.72040884 295.23151383 228.2421875 292.171875 C227.37207031 293.18507813 227.37207031 293.18507813 226.484375 294.21875 C217.93426961 303.98223668 217.93426961 303.98223668 213.2421875 306.171875 C207.9421875 305.871875 207.9421875 305.871875 206.2421875 304.171875 C205.83203125 300.96875 205.83203125 300.96875 206.2421875 297.171875 C208.06400554 294.93423971 209.65877134 293.27769097 211.8046875 291.421875 C217.40332023 286.20595649 221.58414243 280.94857512 225.2421875 274.171875 C225.71269531 273.31207031 226.18320312 272.45226562 226.66796875 271.56640625 C234.38452586 256.15605474 235.26552088 238.74479182 230.0546875 222.4609375 C224.99511471 208.43195975 215.79311162 195.53915775 203.2421875 187.171875 C202.5821875 187.171875 201.9221875 187.171875 201.2421875 187.171875 C200.62737614 179.9171009 200.62737614 179.9171009 203.3046875 176.671875 C204.2740625 175.846875 205.2434375 175.021875 206.2421875 174.171875 C215.7634461 164.56386234 219.54411042 155.17534716 219.55688477 141.81054688 C219.34208689 129.84287336 214.506785 121.75501135 206.3984375 113.234375 C197.33729498 104.61886244 185.09087211 100.63990413 172.68359375 100.90625 C167.18628327 101.50435738 161.21183313 102.68705218 156.2421875 105.171875 C152.7421875 105.421875 152.7421875 105.421875 149.2421875 105.171875 C146.67531383 101.3215645 147.40930026 99.58617737 148.2421875 95.171875 C155.46608426 91.87956807 162.38085897 90.19844024 170.2421875 89.171875 C169.67341475 74.4690995 164.33379411 61.23040493 153.49609375 51.05078125 C140.95125834 40.59312816 126.48821816 36.05808094 110.2421875 37.171875 C104.88319105 38.09501309 99.6099779 39.20888153 94.5625 41.26171875 C91.66082371 42.39991837 89.33308448 42.3779348 86.2421875 42.171875 C85.5821875 41.841875 84.9221875 41.511875 84.2421875 41.171875 C83.38905533 38.54138415 83.03795247 36.83499254 83.859375 34.16796875 C87.66175166 28.6792273 97.60375186 27.10675413 103.8671875 25.859375 C112.25132834 24.65034121 120.79470596 25.012822 129.2421875 25.171875 C122.41452266 17.08722828 115.88125762 10.6882313 106.3671875 5.859375 C105.73184082 5.53396729 105.09649414 5.20855957 104.44189453 4.87329102 C95.22838908 0.41480692 86.12781535 -1.37547761 75.9296875 -1.265625 C74.92566895 -1.25732666 73.92165039 -1.24902832 72.88720703 -1.24047852 C55.02251512 -0.83622836 38.99361454 6.57763042 26.2421875 19.171875 Z M97.9921875 107.734375 C94.80099835 112.1792456 94.59820348 115.79324793 95.2421875 121.171875 C97.6052739 125.98893573 100.42512677 128.8087886 105.2421875 131.171875 C109.92862929 131.99641952 113.27085341 131.64837852 117.5546875 129.546875 C121.08151245 126.43014598 123.83238311 123.77804671 124.58984375 118.9609375 C124.84148168 112.37458833 123.10082661 109.21184475 118.6796875 104.359375 C115.19481188 101.59761107 111.90149755 101.5763623 107.57421875 101.81640625 C103.06120329 102.50431983 100.94080811 104.37622375 97.9921875 107.734375 Z M131.7421875 233.796875 C129.7007712 238.39006167 129.46855968 242.2238804 130.2421875 247.171875 C132.40779139 252.04448376 135.32871345 254.42615883 140.09375 256.54296875 C145.14836075 258.02259117 148.97565428 256.81709004 153.5546875 254.484375 C157.82542786 250.8095519 159.06073666 247.80493258 159.6796875 242.234375 C159.46897841 237.82634077 158.22574957 234.45462435 155.2421875 231.171875 C151.95904752 228.84831664 148.67885839 227.45920918 144.7421875 226.671875 C139.45949243 227.72841401 135.45453471 229.89891043 131.7421875 233.796875 Z M97.9296875 358.734375 C94.83982034 363.19751646 94.57554901 366.82074982 95.2421875 372.171875 C97.73632641 376.81613366 100.18343817 380.48562522 105.2421875 382.171875 C109.76490013 382.87879989 113.6339125 383.14888897 117.640625 380.71484375 C121.39044442 377.49974587 123.88619125 375.23577718 124.48046875 370.12109375 C124.66170275 364.59822599 124.04155586 361.47116025 120.2421875 357.171875 C116.27920591 353.74929999 113.31882032 352.5582319 108.1953125 352.8515625 C103.69602691 353.58944534 100.9436005 355.39463357 97.9296875 358.734375 Z " fill="#000000" transform="translate(241.7578125,13.828125)"/>
<path d="M0 0 C5.80512153 0.23871528 5.80512153 0.23871528 8.02734375 2.4609375 C8.41429472 7.02695895 8.42841433 9.57523996 6.52734375 13.7734375 C4.06318278 19.83116656 4.10083783 26.31853838 6.02734375 32.5859375 C10.35757813 42.32397611 18.34271402 47.72066671 28.02734375 51.4609375 C37.20149543 53.83406191 47.34794385 53.27868041 56.02734375 49.4609375 C57.44270211 48.59628221 58.83970939 47.70073117 60.21484375 46.7734375 C63.9028062 44.30235335 66.53620108 43.75644453 71.02734375 44.4609375 C72.96484375 45.5859375 72.96484375 45.5859375 74.02734375 47.4609375 C74.52734375 50.3359375 74.52734375 50.3359375 74.02734375 53.4609375 C67.56637464 60.99480476 56.87038068 65.49049724 47.02734375 66.4609375 C34.22930285 67.25450261 23.27186055 65.73191802 12.02734375 59.4609375 C11.55296875 60.5128125 11.07859375 61.5646875 10.58984375 62.6484375 C10.32300781 63.24011719 10.05617187 63.83179688 9.78125 64.44140625 C5.77917609 75.16198765 7.6242308 87.20035005 12.02734375 97.4609375 C13.53703601 99.85066988 15.15740838 102.10928354 16.82421875 104.390625 C18.86254631 107.89813672 18.58346905 110.49854476 18.02734375 114.4609375 C16.02734375 116.4609375 16.02734375 116.4609375 12.33984375 117.2109375 C9.32837745 117.12910418 8.31017255 116.7350728 6.12109375 114.61328125 C-3.94406324 100.68539954 -7.29880734 86.3874478 -5.97265625 69.4609375 C-5.02443519 63.66769653 -3.50443216 58.52375779 -0.91015625 53.2734375 C0.40648915 49.6608585 0.40648915 49.6608585 -1.015625 47.2890625 C-2.09324683 45.74580161 -3.20022637 44.22272496 -4.33203125 42.71875 C-10.12420494 34.74761573 -9.82842539 24.89300175 -8.97265625 15.4609375 C-5.59150998 1.30653104 -5.59150998 1.30653104 0 0 Z " fill="#000000" transform="translate(124.97265625,197.5390625)"/>
<path d="M0 0 C0.78826172 0.00491455 1.57652344 0.0098291 2.38867188 0.01489258 C13.90608001 0.2451935 24.11140346 3.78521239 33.375 10.6875 C35.1875 13.3125 35.1875 13.3125 35.1875 17 C34.1875 20.3125 34.1875 20.3125 31.1875 22.3125 C25.6272296 23.39743081 22.28277945 20.80590763 17.84765625 17.8203125 C9.31315067 12.98283944 -1.53578971 13.02000848 -10.98046875 14.96484375 C-19.75388439 17.84806779 -27.34726643 23.09647023 -31.8125 31.3125 C-34.75960907 37.55908989 -34.99814284 45.07708223 -33.13671875 51.7265625 C-32.37592846 53.59428463 -31.59510503 55.45381304 -30.8125 57.3125 C-30.4469669 60.54137574 -30.27198698 62.3586535 -31.875 65.1875 C-35.13259754 67.07900825 -37.13604905 67.00975794 -40.8125 66.3125 C-48.08838477 58.61867929 -48.3452517 48.680928 -48.125 38.73828125 C-47.85097331 33.30912736 -46.53534263 29.01791243 -43.8125 24.3125 C-43.4 23.54808594 -42.9875 22.78367187 -42.5625 21.99609375 C-35.97042052 10.92814211 -25.11614983 4.75474995 -13.02734375 1.19921875 C-8.66957414 0.16057936 -4.46686077 -0.03318404 0 0 Z " fill="#000000" transform="translate(164.8125,336.6875)"/>
<path d="M0 0 C3.5625 0.3125 3.5625 0.3125 5.5 1.375 C7.19730388 4.47008354 6.91018293 6.83567067 6.5625 10.3125 C6.0675 11.364375 5.5725 12.41625 5.0625 13.5 C2.69960073 18.56660132 2.79972972 23.85522539 3.5625 29.3125 C4.88250294 32.88628573 6.61210871 36.0500273 8.5625 39.3125 C8.86414063 40.0240625 9.16578125 40.735625 9.4765625 41.46875 C10.87414797 43.84162893 12.03720197 44.25407074 14.5625 45.3125 C15.96822266 46.04146484 15.96822266 46.04146484 17.40234375 46.78515625 C18.42457031 47.30980469 19.44679687 47.83445312 20.5 48.375 C21.51964844 48.90222656 22.53929687 49.42945313 23.58984375 49.97265625 C33.28380558 54.34194522 44.25492445 53.04100545 53.9765625 49.46875 C56.17698956 48.48487325 57.95004201 47.48839481 59.875 46.0625 C63.34284308 43.80436962 65.50147949 43.7761388 69.5625 44.3125 C71.5 45.4375 71.5 45.4375 72.5625 47.3125 C73.0625 50.1875 73.0625 50.1875 72.5625 53.3125 C66.10153089 60.84636726 55.40553693 65.34205974 45.5625 66.3125 C29.65966911 67.29858309 15.61243621 64.60005729 3.3125 54.0625 C-5.36814372 45.83155995 -10.3293666 37.26683335 -10.88964844 25.22485352 C-11.07211011 16.74131669 -9.77392644 9.78955044 -5.4375 2.3125 C-3.4375 0.3125 -3.4375 0.3125 0 0 Z " fill="#000000" transform="translate(163.4375,391.6875)"/>
<path d="M0 0 C5.73478982 3.91447732 5.73478982 3.91447732 8.03125 6.2109375 C8.42527456 9.75715853 8.41660513 11.6097835 6.46875 14.6484375 C4.03125 16.2109375 4.03125 16.2109375 0.78125 16.2734375 C-3.12449191 15.16681062 -5.73669511 13.62907664 -9.08203125 11.41796875 C-16.12142143 6.91450795 -25.87777218 6.48149104 -33.96875 7.7734375 C-43.74173671 10.14979981 -52.40756846 14.65777524 -57.96875 23.2109375 C-61.5759998 29.41333104 -61.72481001 36.19314974 -60.96875 43.2109375 C-60.34546673 45.26356319 -60.34546673 45.26356319 -59.46875 47.0234375 C-57.72309807 50.73294784 -57.50098863 53.15700567 -57.96875 57.2109375 C-59.09375 59.1484375 -59.09375 59.1484375 -60.96875 60.2109375 C-63.84375 60.7734375 -63.84375 60.7734375 -66.96875 60.2109375 C-72.71941847 54.99521494 -74.79527784 48.84435383 -75.2890625 41.203125 C-75.61199142 32.82101339 -75.22334566 25.64987339 -70.96875 18.2109375 C-70.31519531 17.04498047 -70.31519531 17.04498047 -69.6484375 15.85546875 C-63.05592243 5.10210401 -53.49602151 -0.74583405 -41.76171875 -4.93359375 C-28.23681348 -7.98401008 -12.01668513 -7.24163394 0 0 Z " fill="#000000" transform="translate(218.96875,90.7890625)"/>
</svg>
